# xmcd
# 
# Track frame offsets:
#     150
#     19332
#     40960
#     60665
#     88230
#     117742
#     141852
#     172615
#     191947
#     219790
# 
# Disc length: 3349
# 
# Revision: 1
# Processed by: cddbd v1.5.2PL0 Copyright (c) Steve Scherf et al.
# Submitted via: BonkEnc v1.0.5
# 
DISCID=8f0d130a
DTITLE=寺井尚子 - Original Best 1998-2001
DYEAR=2004
DGENRE=Jazz
TTITLE0=Thinking Of You
TTITLE1=出会い
TTITLE2=Da-Da
TTITLE3=Highway At Midnight
TTITLE4=Pure Moment
TTITLE5=Shadow Play
TTITLE6=True Blue
TTITLE7=あなたがわたしをさがすとき
TTITLE8=All For You
TTITLE9=Thinking Of You(Live)
EXTD=YEAR: 2004
EXTT0=
EXTT1=
EXTT2=
EXTT3=
EXTT4=
EXTT5=
EXTT6=
EXTT7=
EXTT8=
EXTT9=
PLAYORDER=
